HIERARCHY
ROOT hip
{
  OFFSET 0 0 0
  CHANNELS 6 Xposition Yposition Zposition Zrotation Yrotation Xrotation
  JOINT abdomen
  {
    OFFSET 0 20.6881 -0.73152
    CHANNELS 3 Zrotation Xrotation Yrotation
    JOINT chest
    {
      OFFSET 0 11.7043 -0.48768
      CHANNELS 3 Zrotation Xrotation Yrotation
      JOINT neck
      {
        OFFSET 0 22.1894 -2.19456
        CHANNELS 3 Zrotation Xrotation Yrotation
        JOINT head
        {
          OFFSET -0.24384 7.07133 1.2192
          CHANNELS 3 Zrotation Xrotation Yrotation
          JOINT leftEye
          {
            OFFSET 4.14528 8.04674 8.04672
            CHANNELS 3 Zrotation Xrotation Yrotation
            End Site
            {
              OFFSET 1 0 0
            }
          }
          JOINT rightEye
          {
            OFFSET -3.6576 8.04674 8.04672
            CHANNELS 3 Zrotation Xrotation Yrotation
            End Site
            {
              OFFSET 1 0 0
            }
          }
        }
      }
      JOINT rCollar
      {
        OFFSET -2.68224 19.2634 -4.8768
        CHANNELS 3 Zrotation Xrotation Yrotation
        JOINT rShldr
        {
          OFFSET -8.77824 -1.95073 1.46304
          CHANNELS 3 Zrotation Xrotation Yrotation
          JOINT rForeArm
          {
            OFFSET -28.1742 -1.7115 0.48768
            CHANNELS 3 Zrotation Xrotation Yrotation
            JOINT rHand
            {
              OFFSET -22.5879 0.773209 7.07136
              CHANNELS 3 Zrotation Xrotation Yrotation
              JOINT rThumb1
              {
                OFFSET -1.2192 -0.487915 3.41376
                CHANNELS 3 Zrotation Xrotation Yrotation
                JOINT rThumb2
                {
                  OFFSET -3.37035 -0.52449 3.41376
                  CHANNELS 3 Zrotation Xrotation Yrotation
                  End Site
                  {
                    OFFSET -1.78271 -1.18214 1.43049
                  }
                }
              }
              JOINT rIndex1
              {
                OFFSET -7.75947 0.938293 5.60832
                CHANNELS 3 Zrotation Xrotation Yrotation
                JOINT rIndex2
                {
                  OFFSET -2.54057 -0.884171 1.56538
                  CHANNELS 3 Zrotation Xrotation Yrotation
                  End Site
                  {
                    OFFSET -1.62519 -0.234802 1.16502
                  }
                }
              }
              JOINT rMid1
              {
                OFFSET -8.24714 1.18213 3.41376
                CHANNELS 3 Zrotation Xrotation Yrotation
                JOINT rMid2
                {
                  OFFSET -3.10165 -0.590103 1.0647
                  CHANNELS 3 Zrotation Xrotation Yrotation
                  End Site
                  {
                    OFFSET -2.48547 -0.328903 0.83742
                  }
                }
              }
              JOINT rRing1
              {
                OFFSET -8.82822 0.546677 1.51678
                CHANNELS 3 Zrotation Xrotation Yrotation
                JOINT rRing2
                {
                  OFFSET -2.60934 -0.819778 -0.0198488
                  CHANNELS 3 Zrotation Xrotation Yrotation
                  End Site
                  {
                    OFFSET -2.33842 -0.294052 0.168128
                  }
                }
              }
              JOINT rPinky1
              {
                OFFSET -8.27202 -0.0477905 -0.4584
                CHANNELS 3 Zrotation Xrotation Yrotation
                JOINT rPinky2
                {
                  OFFSET -1.82734 -0.647385 -0.700984
                  CHANNELS 3 Zrotation Xrotation Yrotation
                  End Site
                  {
                    OFFSET -1.69225 -0.51767 -0.607171
                  }
                }
              }
            }
          }
        }
      }
      JOINT lCollar
      {
        OFFSET 2.68224 19.2634 -4.8768
        CHANNELS 3 Zrotation Xrotation Yrotation
        JOINT lShldr
        {
          OFFSET 8.77824 -1.95073 1.46304
          CHANNELS 3 Zrotation Xrotation Yrotation
          JOINT lForeArm
          {
            OFFSET 28.1742 -1.7115 0.48768
            CHANNELS 3 Zrotation Xrotation Yrotation
            JOINT lHand
            {
              OFFSET 22.5879 0.773209 7.07136
              CHANNELS 3 Zrotation Xrotation Yrotation
              JOINT lThumb1
              {
                OFFSET 1.2192 -0.487915 3.41376
                CHANNELS 3 Zrotation Xrotation Yrotation
                JOINT lThumb2
                {
                  OFFSET 3.37035 -0.52449 3.41376
                  CHANNELS 3 Zrotation Xrotation Yrotation
                  End Site
                  {
                    OFFSET 1.78271 -1.18214 1.43049
                  }
                }
              }
              JOINT lIndex1
              {
                OFFSET 7.75947 0.938293 5.60832
                CHANNELS 3 Zrotation Xrotation Yrotation
                JOINT lIndex2
                {
                  OFFSET 2.54057 -0.884171 1.56538
                  CHANNELS 3 Zrotation Xrotation Yrotation
                  End Site
                  {
                    OFFSET 1.62519 -0.234802 1.16502
                  }
                }
              }
              JOINT lMid1
              {
                OFFSET 8.24714 1.18213 3.41376
                CHANNELS 3 Zrotation Xrotation Yrotation
                JOINT lMid2
                {
                  OFFSET 3.10165 -0.590103 1.0647
                  CHANNELS 3 Zrotation Xrotation Yrotation
                  End Site
                  {
                    OFFSET 2.48547 -0.328903 0.83742
                  }
                }
              }
              JOINT lRing1
              {
                OFFSET 8.82822 0.546677 1.51678
                CHANNELS 3 Zrotation Xrotation Yrotation
                JOINT lRing2
                {
                  OFFSET 2.60934 -0.819778 -0.0198488
                  CHANNELS 3 Zrotation Xrotation Yrotation
                  End Site
                  {
                    OFFSET 2.33842 -0.294052 0.168128
                  }
                }
              }
              JOINT lPinky1
              {
                OFFSET 8.27202 -0.0477905 -0.4584
                CHANNELS 3 Zrotation Xrotation Yrotation
                JOINT lPinky2
                {
                  OFFSET 1.82734 -0.647385 -0.700984
                  CHANNELS 3 Zrotation Xrotation Yrotation
                  End Site
                  {
                    OFFSET 1.69225 -0.51767 -0.607171
                  }
                }
              }
            }
          }
        }
      }
    }
  }
  JOINT rButtock
  {
    OFFSET -8.77824 4.35084 1.2192
    CHANNELS 3 Zrotation Xrotation Yrotation
    JOINT rThigh
    {
      OFFSET 0 -1.70687 -2.19456
      CHANNELS 3 Zrotation Xrotation Yrotation
      JOINT rShin
      {
        OFFSET 0 -36.8199 0.73152
        CHANNELS 3 Zrotation Xrotation Yrotation
        JOINT rFoot
        {
          OFFSET 0.73152 -45.1104 -5.12064
          CHANNELS 3 Zrotation Xrotation Yrotation
          End Site
          {
            OFFSET -1.1221 -3.69964 12.103
          }
        }
      }
    }
  }
  JOINT lButtock
  {
    OFFSET 8.77824 4.35084 1.2192
    CHANNELS 3 Zrotation Xrotation Yrotation
    JOINT lThigh
    {
      OFFSET 0 -1.70687 -2.19456
      CHANNELS 3 Zrotation Xrotation Yrotation
      JOINT lShin
      {
        OFFSET 0 -36.8199 0.73152
        CHANNELS 3 Zrotation Xrotation Yrotation
        JOINT lFoot
        {
          OFFSET -0.73152 -45.1104 -5.12064
          CHANNELS 3 Zrotation Xrotation Yrotation
          End Site
          {
            OFFSET 1.1221 -3.69964 12.103
          }
        }
      }
    }
  }
}
MOTION
Frames:	8
Frame Time:	0.00833333
4.75067 84.1002 -42.0974 0.0 0.0 0.0 -1.51925 -0.00282956 -0.0413933 -0.418698 0.00102585 -0.072511 3.79615e-14 -7.95139e-16 3.47873e-16 1.13907e-13 -6.36111e-15 1.01877e-15 -0.0 0.0 0.0 -0.0 0.0 0.0 1.90827e-14 5.43552e-18 3.97569e-16 4.02031e-13 1.67725e-16 5.36719e-15 6.88754e-12 -2.06617e-12 -9.54166e-15 7.89426e-11 2.08349e-12 8.11041e-13 1.86192e-10 3.42361e-14 1.74294e-12 3.21536e-10 6.04305e-14 2.99767e-12 1.86196e-10 3.37934e-14 1.7334e-12 7.73091 5.47488 0.417314 1.86192e-10 3.38928e-14 1.74931e-12 2.90554 0.965183 0.102902 1.86199e-10 3.45885e-14 1.74453e-12 10.2786 0.731801 0.0259123 1.86186e-10 3.81667e-14 1.75249e-12 2.22167 -0.733487 -0.20892 1.88865e-14 5.24139e-18 -1.49089e-16 3.98912e-13 1.61513e-16 4.17448e-15 6.90528e-12 2.06498e-12 2.8625e-14 7.89404e-11 -2.0524e-12 8.015e-13 1.86229e-10 2.73697e-14 1.76203e-12 3.21613e-10 4.13472e-14 3.02709e-12 1.86225e-10 2.90226e-14 1.76203e-12 -7.73091 5.47488 -0.417314 1.86229e-10 2.74323e-14 1.75249e-12 -2.90554 0.965183 -0.102902 1.8622e-10 2.80286e-14 1.7509e-12 -10.2786 0.731801 -0.0259123 1.8623e-10 2.70347e-14 1.7334e-12 -2.22167 -0.733487 0.20892 -2.03217e-16 0.0 -3.88251e-19 -0.640674 -1.92323 -0.00643404 -0.00925366 -2.07856 -0.0764192 -0.512008 3.99733 0.14029 2.03217e-16 0.0 3.88251e-19 -1.66987 -6.49781 0.154704 -0.00230964 6.20797 -0.0679745 0.534192 0.285503 -0.0665854
4.26805 82.4975 -44.8481 -1.7241 -4.4188 9.6892 -1.19444 -1.79719 0.560635 1.13975 0.7653 0.0615807 0.278332 0.193259 0.362854 -2.7388 7.9576 1.30748 -0.0 0.0 0.0 -0.0 0.0 0.0 1.37574e-14 4.34321e-14 4.18768e-15 20.6356 5.39993 0.939445 -3.68006 -1.5775 5.84647 0.00971512 -2.18673 -0.306517 1.70517e-10 2.48001e-10 -2.70084e-10 2.95472e-10 4.28231e-10 -4.66328e-10 1.70518e-10 2.48e-10 -2.70095e-10 7.73091 5.47488 0.417314 1.70516e-10 2.48e-10 -2.7008e-10 2.90554 0.965183 0.102902 1.70522e-10 2.48001e-10 -2.70082e-10 10.2786 0.731801 0.0259123 1.70512e-10 2.48003e-10 -2.70075e-10 2.22167 -0.733487 -0.20892 1.3609e-14 4.34322e-14 3.67829e-15 -22.1103 6.19445 -0.467622 4.29282 -1.96516 -6.68917 -0.00464119 -1.51451 0.212583 1.8507e-10 2.92409e-10 2.54749e-10 3.19581e-10 5.05393e-10 4.40305e-10 1.85067e-10 2.9241e-10 2.54752e-10 -7.73091 5.47488 -0.417314 1.85071e-10 2.9241e-10 2.54741e-10 -2.90554 0.965183 -0.102902 1.85061e-10 2.9241e-10 2.5474e-10 -10.2786 0.731801 -0.0259123 1.85072e-10 2.92409e-10 2.54725e-10 -2.22167 -0.733487 0.20892 -2.03217e-16 0.0 -3.88251e-19 -0.226832 -6.48552 0.215716 -0.00366966 4.87206 0.047303 -0.632583 0.523212 -1.88118 2.03217e-16 0.0 3.88251e-19 -0.203132 -9.98168 0.171823 -0.0180154 11.397 -0.14923 0.52522 -2.78304 0.210817
4.33505 82.4897 -44.8682 -1.7904 -4.4463 9.7828 -0.800102 -3.69093 1.19674 2.77895 1.56795 0.202985 0.569974 0.399366 0.747106 -6.04189 16.3614 2.77749 -0.0 0.0 0.0 -0.0 0.0 0.0 7.52183e-15 9.80527e-14 7.22458e-15 42.2544 11.1071 1.95788 -7.22246 -3.19047 12.0414 -0.00553224 -4.50045 -0.632351 1.70497e-10 5.38342e-10 -6.22068e-10 2.96743e-10 9.29408e-10 -1.07406e-09 1.70496e-10 5.38342e-10 -6.22079e-10 7.73091 5.47488 0.417314 1.70495e-10 5.38342e-10 -6.22065e-10 2.90554 0.965183 0.102902 1.70501e-10 5.38342e-10 -6.22065e-10 10.2786 0.731801 0.0259123 1.70492e-10 5.38343e-10 -6.22058e-10 2.22167 -0.733487 -0.20892 7.42478e-15 9.80532e-14 6.75247e-15 -45.3665 12.747 -0.979715 8.34299 -3.95853 -13.7971 0.00272183 -3.12692 0.439416 2.13376e-10 6.78544e-10 5.8062e-10 3.68479e-10 1.17279e-09 1.00361e-09 2.13375e-10 6.78545e-10 5.80625e-10 -7.73091 5.47488 -0.417314 2.13378e-10 6.78546e-10 5.80613e-10 -2.90554 0.965183 -0.102902 2.13368e-10 6.78546e-10 5.80612e-10 -10.2786 0.731801 -0.0259123 2.1338e-10 6.78545e-10 5.80599e-10 -2.22167 -0.733487 0.20892 -2.03217e-16 0.0 -3.88251e-19 0.258479 -11.3084 0.458447 -0.0309356 12.2154 0.181711 -1.02688 -3.13491 -4.02862 2.03217e-16 0.0 3.88251e-19 1.3566 -13.6703 0.185461 -0.0178421 16.8845 -0.239859 0.548758 -6.02854 0.509923
4.40794 82.4844 -44.886 -1.7878 -4.4739 9.8662 -0.431276 -5.3836 1.77168 4.2459 2.29381 0.330012 0.827651 0.579683 1.08861 -9.39119 23.8207 4.24704 -0.0 0.0 0.0 -0.0 0.0 0.0 3.10693e-15 1.30285e-13 1.17679e-14 61.3571 16.182 2.92167 -10.0886 -4.53576 17.5896 -0.0414356 -6.55944 -0.924935 1.39166e-10 7.43934e-10 -8.13739e-10 2.43345e-10 1.28457e-09 -1.40498e-09 1.39164e-10 7.43934e-10 -8.13751e-10 7.73091 5.47488 0.417314 1.39164e-10 7.43933e-10 -8.13738e-10 2.90554 0.965183 0.102902 1.39169e-10 7.43932e-10 -8.13735e-10 10.2786 0.731801 0.0259123 1.39162e-10 7.43933e-10 -8.13729e-10 2.22167 -0.733487 -0.20892 3.05404e-15 1.30286e-13 1.13331e-14 -66.0133 18.5783 -1.47137 11.5277 -5.57472 -20.1551 0.0198816 -4.54326 0.639536 1.82751e-10 8.77173e-10 7.60724e-10 3.15516e-10 1.5161e-09 1.31486e-09 1.82751e-10 8.77173e-10 7.60732e-10 -7.73091 5.47488 -0.417314 1.82753e-10 8.77175e-10 7.60719e-10 -2.90554 0.965183 -0.102902 1.82743e-10 8.77175e-10 7.60718e-10 -10.2786 0.731801 -0.0259123 1.82757e-10 8.77174e-10 7.60708e-10 -2.22167 -0.733487 0.20892 -2.03217e-16 0.0 -3.88251e-19 0.710567 -15.6092 0.680982 -0.0859705 18.773 0.310661 -1.61056 -6.38976 -5.96037 2.03217e-16 0.0 3.88251e-19 2.73705 -16.9494 0.20934 -0.00187014 21.7748 -0.327046 0.597281 -8.91939 0.774237
4.46863 82.4824 -44.8754 -1.7843 -4.5041 9.8983 -0.205543 -6.5758 2.18711 5.28964 2.82776 0.420859 1.00573 0.695614 1.3232 -11.9952 28.9682 5.40678 -0.0 0.0 0.0 -0.0 0.0 0.0 3.24374e-15 1.06548e-13 2.00773e-14 74.5615 19.693 3.65107 -11.9294 -5.39928 21.4734 -0.0787911 -7.98233 -1.12923 2.95601e-11 7.37649e-10 -6.0463e-10 5.32763e-11 1.2747e-09 -1.0439e-09 2.95577e-11 7.37649e-10 -6.04643e-10 7.73091 5.47488 0.417314 2.95577e-11 7.37648e-10 -6.0463e-10 2.90554 0.965183 0.102902 2.95621e-11 7.37648e-10 -6.04626e-10 10.2786 0.731801 0.0259123 2.95561e-11 7.37648e-10 -6.0462e-10 2.22167 -0.733487 -0.20892 3.21697e-15 1.06549e-13 1.96797e-14 -80.3648 22.611 -1.84687 13.5 -6.55796 -24.5534 0.0368337 -5.46968 0.77108 4.79707e-12 6.07036e-10 5.76415e-10 7.8997e-12 1.04918e-09 9.9599e-10 4.79787e-12 6.07036e-10 5.76425e-10 -7.73091 5.47488 -0.417314 4.79985e-12 6.07039e-10 5.76412e-10 -2.90554 0.965183 -0.102902 4.78983e-12 6.07038e-10 5.76411e-10 -10.2786 0.731801 -0.0259123 4.80343e-12 6.07037e-10 5.76402e-10 -2.22167 -0.733487 0.20892 -2.03217e-16 0.0 -3.88251e-19 0.999436 -18.6053 0.833518 -0.14356 23.3667 0.409434 -2.14672 -8.67436 -7.30568 2.03217e-16 0.0 3.88251e-19 3.66783 -19.2045 0.257235 0.0189069 25.1722 -0.392586 0.642482 -10.9244 0.942825
4.55917 82.4845 -44.8365 -1.67 -4.5145 9.8919 -0.236377 -7.07795 2.37193 5.75698 3.10441 0.459585 1.07595 0.720658 1.4046 -13.0989 30.9078 5.87755 -0.0 0.0 0.0 -0.0 0.0 0.0 1.24785e-14 -2.07432e-14 3.35927e-14 79.696 21.0056 3.98304 -12.6139 -5.7157 22.9928 -0.095383 -8.50299 -1.20454 -2.53971e-10 3.53516e-10 3.52455e-10 -4.39931e-10 6.13992e-10 6.08617e-10 -2.53969e-10 3.53515e-10 3.52443e-10 7.73091 5.47488 0.417314 -2.53973e-10 3.53515e-10 3.52456e-10 2.90554 0.965183 0.102902 -2.53969e-10 3.53515e-10 3.52459e-10 10.2786 0.731801 0.0259123 -2.53976e-10 3.53516e-10 3.52463e-10 2.22167 -0.733487 -0.20892 1.24504e-14 -2.07413e-14 3.32335e-14 -86.0182 24.1308 -2.02298 14.1646 -6.86303 -26.1494 0.0424844 -5.69734 0.803548 -4.88867e-10 -5.45715e-10 -3.123e-10 -8.45382e-10 -9.4314e-10 -5.41021e-10 -4.88867e-10 -5.45715e-10 -3.12289e-10 -7.73091 5.47488 -0.417314 -4.88864e-10 -5.45711e-10 -3.12301e-10 -2.90554 0.965183 -0.102902 -4.88873e-10 -5.45712e-10 -3.12302e-10 -10.2786 0.731801 -0.0259123 -4.88862e-10 -5.45712e-10 -3.12309e-10 -2.22167 -0.733487 0.20892 -2.03217e-16 0.0 -3.88251e-19 1.00866 -19.7745 0.867528 -0.171168 25.2123 0.451984 -2.38377 -9.63908 -7.79236 2.03217e-16 0.0 3.88251e-19 3.95652 -20.0221 0.336075 0.0289734 26.4707 -0.418948 0.650415 -11.6787 0.95934
4.64323 82.4876 -44.788 -1.5696 -4.5241 9.861 -0.458309 -7.08728 2.39072 5.81285 3.19674 0.461085 1.06951 0.680835 1.37674 -13.0075 30.5686 5.77787 -0.0 0.0 0.0 -0.0 0.0 0.0 2.8082e-14 -2.20802e-13 5.08299e-14 79.1154 20.753 4.00843 -12.5349 -5.67841 22.8162 -0.0920213 -8.37991 -1.18678 -6.58671e-10 -2.96641e-10 1.83491e-09 -1.14434e-09 -5.04947e-10 3.16822e-09 -6.58662e-10 -2.96645e-10 1.8349e-09 7.73091 5.47488 0.417314 -6.58671e-10 -2.96642e-10 1.83491e-09 2.90554 0.965183 0.102902 -6.58668e-10 -2.96642e-10 1.83491e-09 10.2786 0.731801 0.0259123 -6.58676e-10 -2.96639e-10 1.83492e-09 2.22167 -0.733487 -0.20892 2.8033e-14 -2.20799e-13 5.05099e-14 -85.4882 23.8566 -2.04058 13.9762 -6.74056 -25.7331 0.0381974 -5.42653 0.765079 -1.20283e-09 -2.31813e-09 -1.69491e-09 -2.07942e-09 -4.00642e-09 -2.93213e-09 -1.20283e-09 -2.31813e-09 -1.6949e-09 -7.73091 5.47488 -0.417314 -1.20282e-09 -2.31812e-09 -1.69491e-09 -2.90554 0.965183 -0.102902 -1.20283e-09 -2.31812e-09 -1.69491e-09 -10.2786 0.731801 -0.0259123 -1.20282e-09 -2.31812e-09 -1.69492e-09 -2.22167 -0.733487 0.20892 -2.03217e-16 0.0 -3.88251e-19 0.810361 -19.6389 0.813506 -0.168453 25.095 0.449694 -2.35162 -9.66945 -7.65192 2.03217e-16 0.0 3.88251e-19 3.78445 -19.813 0.436039 0.0269997 26.2706 -0.414845 0.626127 -11.5403 0.866188
4.70041 82.4898 -44.7391 -1.5328 -4.6192 9.8197 -0.724255 -6.88494 2.34725 5.68378 3.19718 0.449762 1.03031 0.616361 1.31073 -12.4375 29.3344 5.4651 -0.0 0.0 0.0 -0.0 0.0 0.0 4.18721e-14 -4.09654e-13 6.9662e-14 76.2537 19.9082 3.9054 -12.1539 -5.50205 21.9684 -0.0813471 -8.01888 -1.13465 -1.0089e-09 -9.23251e-10 3.2285e-09 -1.75436e-09 -1.58351e-09 5.57446e-09 -1.00888e-09 -9.23257e-10 3.22849e-09 7.73091 5.47488 0.417314 -1.00889e-09 -9.23252e-10 3.2285e-09 2.90554 0.965183 0.102902 -1.00889e-09 -9.23252e-10 3.2285e-09 10.2786 0.731801 0.0259123 -1.0089e-09 -9.23247e-10 3.2285e-09 2.22167 -0.733487 -0.20892 4.1798e-14 -4.0965e-13 6.93797e-14 -82.4835 22.8629 -1.97443 13.447 -6.44811 -24.5276 0.0310509 -4.97718 0.701309 -1.82979e-09 -3.97626e-09 -2.96432e-09 -3.16311e-09 -6.87231e-09 -5.12734e-09 -1.82979e-09 -3.97625e-09 -2.96431e-09 -7.73091 5.47488 -0.417314 -1.82978e-09 -3.97625e-09 -2.96432e-09 -2.90554 0.965183 -0.102902 -1.82979e-09 -3.97625e-09 -2.96432e-09 -10.2786 0.731801 -0.0259123 -1.82978e-09 -3.97625e-09 -2.96433e-09 -2.22167 -0.733487 0.20892 -2.03217e-16 0.0 -3.88251e-19 0.551614 -18.9832 0.735862 -0.153443 24.1905 0.429196 -2.20828 -9.31176 -7.25259 2.03217e-16 0.0 3.88251e-19 3.443 -19.1997 0.546148 0.0204677 25.4851 -0.399063 0.595489 -11.0625 0.748286
